<?xml version="1.0" encoding="UTF-8"?>
<!DOCTYPE svg PUBLIC "-//W3C//DTD SVG 1.1//EN" "http://www.w3.org/Graphics/SVG/1.1/DTD/svg11.dtd">
<!-- Creator: CorelDRAW X8 -->
<svg xmlns="http://www.w3.org/2000/svg" xml:space="preserve" width="36px" height="36px" version="1.1" style="shape-rendering:geometricPrecision; text-rendering:geometricPrecision; image-rendering:optimizeQuality; fill-rule:evenodd; clip-rule:evenodd"
viewBox="0 0 123 123"
 xmlns:xlink="http://www.w3.org/1999/xlink">
 <defs>
  <style type="text/css">
   <![CDATA[
    .fil0 {fill:#B3B3B3}
   ]]>
  </style>
 </defs>
 <g id="Camada_x0020_1">
  <metadata id="CorelCorpID_0Corel-Layer"/>
  <path class="fil0" d="M51 88c-1,1 -1,3 0,4 1,0 1,0 2,0 1,0 1,0 2,0l28 -29c1,-1 1,-2 0,-3l-28 -29c-1,-1 -3,-1 -4,0 -1,1 -1,3 0,4l27 26 -27 27zm10 -88c-17,0 -32,7 -43,18 -11,11 -18,26 -18,43 0,17 7,33 18,44 11,11 26,18 43,18 17,0 33,-7 44,-18 11,-11 18,-27 18,-44 0,-17 -7,-32 -18,-43 -11,-11 -27,-18 -44,-18zm-40 21c10,-10 25,-17 40,-17 16,0 30,7 41,17 10,10 16,25 16,40 0,16 -6,30 -16,41 -11,10 -25,16 -41,16 -15,0 -30,-6 -40,-16 -10,-11 -17,-25 -17,-41 0,-15 7,-30 17,-40z"/>
 </g>
</svg>
