<?xml version="1.0" encoding="UTF-8"?>
<!DOCTYPE svg PUBLIC "-//W3C//DTD SVG 1.1//EN" "http://www.w3.org/Graphics/SVG/1.1/DTD/svg11.dtd">
<!-- Creator: CorelDRAW X8 -->
<svg xmlns="http://www.w3.org/2000/svg" xml:space="preserve" width="36px" height="36px" version="1.1" style="shape-rendering:geometricPrecision; text-rendering:geometricPrecision; image-rendering:optimizeQuality; fill-rule:evenodd; clip-rule:evenodd"
viewBox="0 0 133 133"
 xmlns:xlink="http://www.w3.org/1999/xlink">
 <defs>
  <style type="text/css">
   <![CDATA[
    .fil0 {fill:#B3B3B3}
   ]]>
  </style>
 </defs>
 <g id="Camada_x0020_1">
  <metadata id="CorelCorpID_0Corel-Layer"/>
  <path class="fil0" d="M78 95c1,1 1,3 0,4 -1,1 -2,1 -2,1 -1,0 -2,0 -2,-1l-31 -31c-1,-1 -1,-2 0,-3l31 -31c1,-1 3,-1 4,0 1,1 1,3 0,4l-29 29 29 28zm-11 -95c18,0 35,7 47,19 12,13 19,29 19,48 0,18 -7,35 -19,47 -12,12 -29,19 -47,19 -19,0 -35,-7 -48,-19 -12,-12 -19,-29 -19,-47 0,-19 7,-35 19,-48 13,-12 29,-19 48,-19zm43 23c-11,-11 -26,-18 -43,-18 -18,0 -33,7 -44,18 -11,11 -18,26 -18,44 0,17 7,32 18,43 11,12 26,18 44,18 17,0 32,-6 43,-18 11,-11 18,-26 18,-43 0,-18 -7,-33 -18,-44z"/>
 </g>
</svg>
